<svg xmlns="http://www.w3.org/2000/svg" viewBox="0 0 1024 1024" version="1.1"><path d="M 71 194.500 L 71 318 194.500 318 L 318 318 318 194.500 L 318 71 194.500 71 L 71 71 71 194.500 M 353 123.487 L 353 175.974 388.250 176.237 L 423.500 176.500 423.773 194.250 L 424.046 212 388.523 212 L 353 212 353 229.477 L 353 246.954 370.750 247.227 L 388.500 247.500 388.774 264.750 L 389.047 282 406.524 282 L 424 282 424 247 L 424 212 441.500 212 L 459 212 459 229.500 L 459 247 476.500 247 L 494 247 494 229.523 L 494 212.046 511.750 211.773 L 529.500 211.500 529.757 141.250 L 530.014 71 494.507 71 L 459 71 459 88.500 L 459 106 476.500 106 L 494 106 494 123.500 L 494 141 459 141 L 424 141 424 123.500 L 424 106 406 106 L 388 106 388 88.500 L 388 71 370.500 71 L 353 71 353 123.487 M 600 88.500 L 600 106 618 106 L 636 106 636 123.477 L 636 140.954 618.250 141.227 L 600.500 141.500 600.226 158.727 L 599.953 175.954 617.726 176.227 L 635.500 176.500 635.773 194.250 L 636.046 212 600.523 212 L 565 212 565 229.500 L 565 247 582.500 247 L 600 247 600 264.477 L 600 281.954 617.750 282.227 L 635.500 282.500 635.773 300.250 L 636.046 318 618.023 318 L 600 318 600 300.500 L 600 283 582.500 283 L 565 283 565 300.500 L 565 318 547.500 318 L 530 318 530 300.500 L 530 283 512 283 L 494 283 494 300.500 L 494 318 476.500 318 L 459 318 459 300.500 L 459 283 441.500 283 L 424 283 424 300.500 L 424 318 406.500 318 L 389 318 389 335.500 L 389 353 406.500 353 L 424 353 424 370.500 L 424 388 441.500 388 L 459 388 459 370.500 L 459 353 494.523 353 L 530.046 353 529.773 370.750 L 529.500 388.500 511.743 388.773 L 493.987 389.046 494.243 459.273 L 494.500 529.500 512.250 529.773 L 530 530.046 530 547.523 L 530 565 494.500 565 L 459 565 459 494.500 L 459 424 424 424 L 389 424 389 441.500 L 389 459 406.500 459 L 424 459 424 476.487 L 424 493.974 388.750 494.237 L 353.500 494.500 353.500 512 L 353.500 529.500 388.750 529.763 L 424 530.026 424 547.513 L 424 565 353 565 L 282 565 282 547.500 L 282 530 264.500 530 L 247 530 247 512 L 247 494 264.500 494 L 282 494 282 476.500 L 282 459 300 459 L 318 459 318 441.500 L 318 424 282.500 424 L 247 424 247 441.500 L 247 459 229.500 459 L 212 459 212 424 L 212 389 282.500 389 L 353 389 353 406.500 L 353 424 370.500 424 L 388 424 388 388.500 L 388 353 282.500 353 L 177 353 177 388.500 L 177 424 141.500 424 L 106 424 106 441.500 L 106 459 88.500 459 L 71 459 71 476.500 L 71 494 88.500 494 L 106 494 106 476.500 L 106 459 141.500 459 L 177 459 177 476.500 L 177 494 194.500 494 L 212 494 212 512 L 212 530 229.500 530 L 247 530 247 547.500 L 247 565 212 565 L 177 565 177 582.500 L 177 600 194.500 600 L 212 600 212 617.500 L 212 635 229.500 635 L 247 635 247 617.500 L 247 600 282.500 600 L 318 600 318 618 L 318 636 300.500 636 L 283 636 283 653.500 L 283 671 318 671 L 353 671 353 759 L 353 847 370.500 847 L 388 847 388 829.500 L 388 812 406 812 L 424 812 424 829.500 L 424 847 441.500 847 L 459 847 459 829.500 L 459 812 441.500 812 L 424 812 424 794.500 L 424 777 441.500 777 L 459 777 459 759 L 459 741 476.500 741 L 494 741 494 723.500 L 494 706 565 706 L 636 706 636 741.500 L 636 777 618 777 L 600 777 600 759.500 L 600 742 582.500 742 L 565 742 565 759.500 L 565 777 547.500 777 L 530 777 530 759.500 L 530 742 512 742 L 494 742 494 777 L 494 812 529.500 812 L 565 812 565 865 L 565 918 547.500 918 L 530 918 530 935.500 L 530 953 565 953 L 600 953 600 918 L 600 883 618 883 L 636 883 636 918 L 636 953 724 953 L 812 953 812 935.500 L 812 918 865 918 L 918 918 918 935.500 L 918 953 935.500 953 L 953 953 953 882.500 L 953 812 935.500 812 L 918 812 918 777 L 918 742 900.500 742 L 883 742 883 777 L 883 812 900.500 812 L 918 812 918 830 L 918 848 883.024 848 L 848.047 848 847.774 865.250 L 847.500 882.500 829.750 882.773 L 812 883.046 812 865.523 L 812 848 777 848 L 742 848 742 865.500 L 742 883 759.500 883 L 777 883 777 900.500 L 777 918 741.500 918 L 706 918 706 882.500 L 706 847 723.500 847 L 741 847 741 829.500 L 741 812 776.500 812 L 812 812 812 829.500 L 812 847 829.500 847 L 847 847 847 759 L 847 671 900 671 L 953 671 953 618 L 953 565 935.500 565 L 918 565 918 547.500 L 918 530 935.500 530 L 953 530 953 512 L 953 494 935.500 494 L 918 494 918 476.500 L 918 459 935.500 459 L 953 459 953 441.500 L 953 424 935.500 424 L 918 424 918 406 L 918 388 935.500 388 L 953 388 953 370.500 L 953 353 900.523 353 L 848.046 353 847.773 370.750 L 847.500 388.500 830 388.500 L 812.500 388.500 812.227 370.750 L 811.954 353 794.500 353 L 777.046 353 776.773 370.750 L 776.500 388.500 741.250 388.763 L 706 389.026 706 406.513 L 706 424 688.500 424 L 671 424 671 406 L 671 388 688.500 388 L 706 388 706 370.500 L 706 353 688.500 353 L 671 353 671 212 L 671 71 635.500 71 L 600 71 600 88.500 M 706 194.500 L 706 318 830 318 L 954 318 954 194.500 L 954 71 830 71 L 706 71 706 194.500 M 112 194.500 L 112 277 194.500 277 L 277 277 277 194.500 L 277 112 194.500 112 L 112 112 112 194.500 M 747 194.500 L 747 277 830 277 L 913 277 913 194.500 L 913 112 830 112 L 747 112 747 194.500 M 141.667 141.667 C 141.300 142.033, 141 165.883, 141 194.667 L 141 247 194 247 L 247 247 247 194 L 247 141 194.667 141 C 165.883 141, 142.033 141.300, 141.667 141.667 M 777 193.991 L 777 247 830.009 247 L 883.018 247 882.759 194.250 L 882.500 141.500 829.750 141.241 L 777 140.982 777 193.991 M 459 194 L 459 212 476.500 212 L 494 212 494 194 L 494 176 476.500 176 L 459 176 459 194 M 353 300.500 L 353 318 370.500 318 L 388 318 388 300.500 L 388 283 370.500 283 L 353 283 353 300.500 M 565 424 L 565 530 599.991 530 L 634.982 530 635.241 582.750 L 635.500 635.500 653.250 635.773 L 671 636.046 671 618.023 L 671 600 688.500 600 L 706 600 706 618.023 L 706 636.046 723.750 635.773 L 741.500 635.500 741.773 617.750 L 742.046 600 759.523 600 L 777 600 777 582.500 L 777 565 741.500 565 L 706 565 706 512 L 706 459 688.500 459 L 671 459 671 441.500 L 671 424 653.500 424 L 636 424 636 388.500 L 636 353 618 353 L 600 353 600 335.500 L 600 318 582.500 318 L 565 318 565 424 M 71 370.500 L 71 388 88.500 388 L 106 388 106 370.500 L 106 353 88.500 353 L 71 353 71 370.500 M 600 441.500 L 600 459 617.500 459 L 635 459 635 441.500 L 635 424 617.500 424 L 600 424 600 441.500 M 777 441.500 L 777 459 794.500 459 L 812 459 812 441.500 L 812 424 794.500 424 L 777 424 777 441.500 M 847 441.500 L 847 459 882.500 459 L 918 459 918 441.500 L 918 424 882.500 424 L 847 424 847 441.500 M 636 476.500 L 636 494 653.500 494 L 671 494 671 476.500 L 671 459 653.500 459 L 636 459 636 476.500 M 141.667 494.667 C 141.300 495.033, 141 511.008, 141 530.167 L 141 565 123.500 565 L 106 565 106 547.500 L 106 530 88.500 530 L 71 530 71 600.500 L 71 671 88.500 671 L 106 671 106 635.500 L 106 600 123.500 600 L 141 600 141 582.500 L 141 565 158.500 565 L 176 565 176 529.500 L 176 494 159.167 494 C 149.908 494, 142.033 494.300, 141.667 494.667 M 283 512 L 283 530.047 300.250 529.774 L 317.500 529.500 317.500 512 L 317.500 494.500 300.250 494.226 L 283 493.953 283 512 M 777 512 L 777 530 794.500 530 L 812 530 812 512 L 812 494 794.500 494 L 777 494 777 512 M 847.443 495.288 C 847.171 495.997, 847.073 503.985, 847.224 513.038 L 847.500 529.500 865.250 529.773 L 883 530.046 883 512.023 L 883 494 865.469 494 C 852.087 494, 847.820 494.305, 847.443 495.288 M 424 582.500 L 424 600 441.500 600 L 459 600 459 582.500 L 459 565 441.500 565 L 424 565 424 582.500 M 565 582.500 L 565 600 529.500 600 L 494 600 494 617.500 L 494 635 459 635 L 424 635 424 670.500 L 424 706 406 706 L 388 706 388 741.500 L 388 777 406 777 L 424 777 424 741.500 L 424 706 441.500 706 L 459 706 459 688.500 L 459 671 512 671 L 565 671 565 653.500 L 565 636 582.500 636 L 600 636 600 600.500 L 600 565 582.500 565 L 565 565 565 582.500 M 812 600.523 L 812 636.046 829.750 635.773 L 847.500 635.500 847.773 617.750 L 848.046 600 865.523 600 L 883 600 883 582.500 L 883 565 847.500 565 L 812 565 812 600.523 M 353 618 L 353 636.046 370.750 635.773 L 388.500 635.500 388.500 618 L 388.500 600.500 370.750 600.227 L 353 599.954 353 618 M 141 653.500 L 141 671 158.500 671 L 176 671 176 653.500 L 176 636 158.500 636 L 141 636 141 653.500 M 671 724 L 671 777 724 777 L 777 777 777 724 L 777 671 724 671 L 671 671 671 724 M 71 830 L 71 954 194.500 954 L 318 954 318 830 L 318 706 194.500 706 L 71 706 71 830 M 706 723.500 L 706 741 723.500 741 L 741 741 741 723.500 L 741 706 723.500 706 L 706 706 706 723.500 M 918 723.500 L 918 741 935.500 741 L 953 741 953 723.500 L 953 706 935.500 706 L 918 706 918 723.500 M 112 830 L 112 913 194.500 913 L 277 913 277 830 L 277 747 194.500 747 L 112 747 112 830 M 141.241 829.750 L 141.500 882.500 194.250 882.759 L 247 883.018 247 830.009 L 247 777 193.991 777 L 140.982 777 141.241 829.750 M 600.227 829.750 L 600.500 847.500 635.750 847.763 L 671 848.026 671 830.013 L 671 812 635.477 812 L 599.954 812 600.227 829.750 M 389 865.524 L 389 883.047 406.250 882.774 L 423.500 882.500 423.774 865.250 L 424.047 848 406.524 848 L 389 848 389 865.524 M 494.226 865.250 L 494.500 882.500 512 882.500 L 529.500 882.500 529.774 865.250 L 530.047 848 512 848 L 493.953 848 494.226 865.250 M 353 935.500 L 353 953 406 953 L 459 953 459 935.500 L 459 918 406 918 L 353 918 353 935.500" stroke="none" fill="#15ca1c" fill-rule="evenodd"/></svg>
